{"accessors":[{"bufferView":0,"componentType":5126,"count":12588,"max":[-55.73746109008789,76.83536529541016,-8.92345905303955],"min":[-109.04141998291016,5.836595058441162,-23.96290397644043],"type":"VEC3"},{"bufferView":1,"componentType":5126,"count":12588,"type":"VEC3"},{"bufferView":2,"componentType":5125,"count":12588,"type":"SCALAR"}],"asset":{"generator":"Luxion KeyShot","version":"2.0"},"bufferViews":[{"buffer":0,"byteLength":151056,"byteOffset":0,"byteStride":12},{"buffer":0,"byteLength":151056,"byteOffset":151056,"byteStride":12},{"buffer":0,"byteLength":50352,"byteOffset":302112}],"buffers":[{"byteLength":352464,"uri":"./hmntbsht_resources/hmntbsht.bin"}],"cameras":[{"name":"active","perspective":{"aspectRatio":1.0,"yfov":0.6911154697478635,"zfar":162.1094207763672,"znear":133.62278747558594},"type":"perspective"}],"materials":[{"doubleSided":true,"name":"Paint Metallic Orange #1","pbrMetallicRoughness":{"baseColorFactor":[0.8272484540939331,0.3421538472175598,0.10253772139549255,1.0],"metallicFactor":0.6910861730575562,"roughnessFactor":0.3872983455657959}}],"meshes":[{"name":"D:/Downloads/Brave Downloads/hmntdsgn.obj-mesh","primitives":[{"attributes":{"NORMAL":1,"POSITION":0},"indices":2,"material":0,"mode":4}]}],"nodes":[{"camera":0,"matrix":[-0.0009951084399916952,-1.81943416943664e-10,9.878862931832947e-05,0.0,-1.1683763257410355e-05,0.000992981658039163,-0.0001176899694029957,0.0,-9.809527546167374e-05,-0.00011826850473880767,-0.0009881244301795959,0.0,-0.01465052890777588,0.0192208309173584,-0.1462404022216797,1.0],"name":"active"},{"mesh":0,"name":"D:/Downloads/Brave Downloads/hmntdsgn.obj"},{"children":[1],"matrix":[1.0,0.0,0.0,0.0,0.0,1.0,0.0,0.0,0.0,0.0,1.0,0.0,82.38944244384766,-5.836595058441162,16.44318199157715,1.0],"name":"hmntdsgn"},{"children":[2],"name":"Default"},{"children":[3],"matrix":[0.001,0.0,0.0,0.0,0.0,0.001,0.0,0.0,0.0,0.0,0.001,0.0,0.0,0.0,0.0,1.0],"name":"lux_root"}],"scenes":[{"nodes":[0,4]}]}   